<?xml version="1.0" encoding="UTF-8" standalone="no"?>
<!-- Created with Inkscape (http://www.inkscape.org/) -->

<svg
   width="40"
   height="40"
   viewBox="0 0 40 40"
   version="1.1"
   id="svg1"
   xml:space="preserve"
   inkscape:version="1.4.2 (ebf0e940d0, 2025-05-08)"
   sodipodi:docname="pluginIcon.svg"
   inkscape:export-filename="logviewer.png"
   inkscape:export-xdpi="3"
   inkscape:export-ydpi="3"
   xmlns:inkscape="http://www.inkscape.org/namespaces/inkscape"
   xmlns:sodipodi="http://sodipodi.sourceforge.net/DTD/sodipodi-0.dtd"
   xmlns="http://www.w3.org/2000/svg"
   xmlns:svg="http://www.w3.org/2000/svg"><sodipodi:namedview
     id="namedview1"
     pagecolor="#505050"
     bordercolor="#ffffff"
     borderopacity="1"
     inkscape:showpageshadow="0"
     inkscape:pageopacity="0"
     inkscape:pagecheckerboard="1"
     inkscape:deskcolor="#505050"
     inkscape:document-units="px"
     inkscape:antialias-rendering="true"
     inkscape:zoom="15.999999"
     inkscape:cx="15.687501"
     inkscape:cy="19.968751"
     inkscape:window-width="1600"
     inkscape:window-height="872"
     inkscape:window-x="0"
     inkscape:window-y="0"
     inkscape:window-maximized="1"
     inkscape:current-layer="layer2"
     showgrid="true"><inkscape:grid
       id="grid1"
       units="px"
       originx="0"
       originy="0"
       spacingx="1"
       spacingy="1"
       empcolor="#00dee5"
       empopacity="0.30196078"
       color="#0099e5"
       opacity="0.14901961"
       empspacing="2"
       enabled="true"
       visible="true" /></sodipodi:namedview><defs
     id="defs1" /><g
     inkscape:label="Fire"
     inkscape:groupmode="layer"
     id="layer1"><path
       style="fill:#000000;fill-opacity:1;stroke:none;stroke-width:0.570122;stroke-dasharray:none;stroke-opacity:1"
       d="m 29.346611,23.692018 v 0.176875 c 1.652421,0 4.427964,-0.470036 5.691109,0.530611 l -2.107824,0.176873 v 0.176874 c 2.039282,0.0013 2.354942,0.480196 2.107824,2.122455 -3.589969,-0.237736 -8.295218,-1.701412 -11.803787,-1.061229 v 0.353745 c 2.787967,1.13228 7.448303,1.303591 10.539098,1.414966 -0.855474,0.757472 -1.332862,0.783224 -2.529383,0.707485 v 0.176874 l 1.475469,0.176874 -0.421565,1.591839 -2.950941,-0.530611 v 0.176873 l 2.740161,0.530617 -0.421566,1.76871 -3.372509,-1.061229 v 0.176873 c 1.630511,0.568875 3.348802,0.796289 3.372509,2.476194 -1.800433,-0.651008 -4.331411,-2.622207 -6.323457,-2.29932 0.493605,0.797232 1.397806,1.061834 2.318601,1.460687 1.869173,0.809644 5.293822,3.330163 7.368913,2.000033 2.628375,-1.684785 4.326494,-6.759156 0.640805,-8.05937 1.098651,-3.872232 -2.832186,-4.175459 -6.323457,-3.183726 M 5.3174483,26.521953 c -5.43211228,0.09708 -3.4356905,7.067824 0.2109389,8.3113 1.9086607,0.650842 4.4333028,-1.072485 6.1125198,-1.737599 1.232697,-0.488257 2.930274,-0.920369 3.583286,-1.975055 l -2.529382,0.530612 v -0.176874 l 0.632346,-0.176874 V 31.120589 L 8.479178,32.358696 C 8.3976367,30.769384 7.8922732,29.067172 6.7929201,27.760052 l 4.2156429,-0.530617 -0.63235,-0.35374 v -0.176874 c 2.171749,-0.0011 5.198113,-0.08837 7.166583,-0.884354 V 25.460719 C 13.979386,24.77358 9.6162682,26.34475 5.9497948,26.345083 5.9595903,23.468675 7.7298037,24.618552 10.165427,24.399501 7.9709199,22.51188 4.5949615,23.882589 5.3174483,26.521953 m 16.0194237,-1.94558 c -0.803875,1.511229 1.095708,4.313795 1.686256,5.836744 l -1.686256,-3.360551 h -0.210781 l 0.843125,2.829934 -3.161728,-0.176874 0.421566,-2.122453 h -0.210786 c -0.386873,1.152518 -0.490143,2.117911 -1.89704,2.653068 0.796529,-1.428848 2.56463,-3.913744 2.107826,-5.483004 -1.341251,0.605347 -1.714619,2.569264 -2.229314,3.714293 -1.093092,2.431764 -3.014484,4.922908 -1.277374,7.428577 2.743517,3.957353 9.771853,1.512472 9.158923,-2.829933 -0.186844,-1.323803 -0.883402,-2.628808 -1.364064,-3.891162 -0.54453,-1.430099 -0.831335,-3.556328 -2.180353,-4.598644 m -14.96552,0.176874 v 0.176873 l 2.9509504,0.353733 -2.9509502,-0.530614 m 13.7008268,1.238097 v 3.006807 h 0.210781 l -0.210781,-3.006807 m -9.695966,0.884356 v 0.176874 l -4.0048608,0.35373 4.0048608,-0.53061 m -5.9009177,0.692743 c 2.1715966,0.152155 2.6955744,3.405991 2.8894641,4.790257 0.086032,0.614167 0.071537,1.834644 -1.0026717,1.812659 -2.146437,-0.04392 -3.1355813,-3.458604 -3.1516423,-4.819466 -0.0088,-0.74422 0.010272,-1.871353 1.2648499,-1.78345 m 22.7634657,-0.162133 2.529383,0.707484 -2.529383,-0.707484 m 8.409158,0.515951 c 0.996023,0.07608 1.091229,1.142733 1.066925,1.783449 -0.04977,1.312369 -1.037151,4.798988 -3.124485,4.798988 -0.960627,0 -0.893433,-1.261505 -0.835321,-1.792183 0.138231,-1.262272 0.680425,-4.959258 2.892881,-4.790254 M 3.8419702,28.290738 c -0.9628867,1.681281 0.277698,4.948176 2.529382,5.483002 -1.5137573,-2.039715 -1.8928059,-3.260727 -2.529382,-5.482992 m 6.3234568,0.707483 1.897038,-0.530615 c -0.753677,-0.224291 -1.449292,-0.01771 -1.897038,0.530615 m 25.08305,-0.707483 v 0.176874 c 2.237736,1.69194 -0.936378,4.092786 -1.475471,5.836747 1.58955,-0.681914 4.334217,-5.616838 1.475471,-6.013616 M 5.1066613,28.467627 c 0.7773999,1.582338 1.2168918,2.509713 1.0539123,4.244901 H 6.3713528 C 7.0365859,31.21938 6.5924427,29.501375 5.1066619,28.467635 m 28.4555591,4.421723 h 0.210781 l 1.053906,-3.714291 C 33.30924,29.8372 33.11786,31.627881 33.562218,32.889358 M 4.6851027,29.35192 C 4.414536,30.142433 4.4564862,30.979432 5.3174483,31.474375 L 4.6851027,29.35192 m 4.2156341,1.768711 V 31.29748 L 13.959502,29.882507 8.9007368,31.120604 M 35.037697,30.23625 34.616132,31.297476 h 0.210781 L 35.037695,30.23625 M 18.59671,30.589985 v 0.176874 c -3.7461,2.401949 -1.831117,6.718853 2.950939,5.659873 v -0.176874 c -4.582705,0.483441 -6.756502,-3.847593 -2.107815,-5.483001 l -0.632346,-0.176874 c 4.317241,-1.505962 7.22254,4.721598 2.740005,6.258861 -4.894904,1.678675 -7.725175,-4.49553 -2.950781,-6.258861 m -0.421571,1.768713 c 0.848894,-0.332416 1.810236,-0.727954 2.731057,-0.321945 1.717369,0.757221 1.276915,3.170613 -0.834019,3.01977 -0.814501,-0.05822 -1.425057,-0.61796 -2.107816,-0.929117 0.591255,2.436648 4.721423,1.645556 4.57784,-0.707485 -0.106045,-1.73799 -3.620379,-3.046352 -4.367062,-1.061223 m -5.48033,-0.707485 v 0.176873 l -4.215633,1.59183 c 0.7584633,-0.990276 2.871627,-1.56829 4.215633,-1.768708 m 7.377368,1.414968 -0.210779,0.530614 h 0.632347 l -0.421568,-0.530614 m 2.950949,1.768711 -1.475476,1.238094 v 0.176874 c 0.798837,-0.229953 1.600153,-0.632596 1.475476,-1.414966"
       id="path1"
       sodipodi:nodetypes="cccccccccccccccccccccsscccsscccccccccccccccccccccccccssssccccccccccccccssccccccsssccccccccccccccccccccccccccccccccccccsccsscsccccccccccccc" /></g><g
     inkscape:groupmode="layer"
     id="layer2"
     inkscape:label="Java"
     style="display:inline"><g
       id="g1"
       transform="matrix(0.08552211,0,0,0.08473184,3.0331979,-1.0404315)"
       style="display:inline;stroke-width:0.998519;stroke-dasharray:none"><path
         fill="#0074bd"
         d="m 162.85938,221.63212 c 0,0 -12.08851,6.9193 8.61435,9.25401 25.08484,2.8186 37.90367,2.41451 65.53961,-2.72382 0,0 7.28048,4.47734 17.42903,8.35854 -61.97416,26.11576 -140.25398,-1.51407 -91.58299,-14.88873 z m -7.57719,-34.08518 c 0,0 -13.56183,9.87509 7.15876,11.9853 26.79656,2.72133 47.95333,2.94333 84.58147,-3.99095 0,0 5.05399,5.05105 13.0141,7.80979 -74.91473,21.55112 -158.35505,1.69615 -104.75433,-15.80414 z"
         id="path1-5"
         style="fill:#000000;fill-opacity:1;stroke:#000000;stroke-width:6.69738;stroke-linecap:round;stroke-linejoin:round;stroke-dasharray:none;stroke-opacity:1" /><path
         fill="#ea2d2e"
         d="m 219.11768,140.41779 c 15.27864,11.66406 -4.00667,22.15079 -4.00667,22.15079 0,0 38.77094,-13.27197 20.96912,-29.89937 -16.63279,-15.49883 -29.38314,-23.19694 39.64834,-49.750992 0,0.0017 -108.36031,17.946012 -56.61079,57.499572 z"
         id="path2"
         style="fill:#000000;fill-opacity:1;stroke:#000000;stroke-width:6.69738;stroke-linecap:round;stroke-linejoin:round;stroke-dasharray:none;stroke-opacity:1" /><path
         fill="#0074bd"
         d="m 301.07959,246.84743 c 0,0 8.94909,7.25853 -9.85948,12.8683 -35.76084,10.65583 -148.87087,13.86855 -180.28524,0.42653 -11.287161,-4.83403 9.88736,-11.53632 16.5491,-12.95061 6.94575,-1.47916 10.91185,-1.20977 10.91185,-1.20977 -12.56017,-8.69777 -81.180854,17.08625 -34.85048,24.48197 126.33965,20.14431 230.30024,-9.07192 197.53425,-23.61642 z M 168.67921,152.22455 c 0,0 -57.52879,13.44201 -20.37067,18.32843 15.69197,2.06531 46.95928,1.59139 76.10405,-0.81316 23.81183,-1.96804 47.70734,-6.171 47.70734,-6.171 0,0 -8.38865,3.53947 -14.4646,7.61523 -58.43156,15.11821 -171.282913,8.07668 -138.79079,-7.37827 27.46856,-13.06786 49.81467,-11.58123 49.81467,-11.58123 z m 103.20235,56.7388 c 59.39265,-30.34866 31.92916,-59.51501 12.7605,-55.58641 -4.68628,0.96032 -6.78852,1.79592 -6.78852,1.79592 0,0 1.74468,-2.69139 5.07174,-3.84877 37.91889,-13.10777 67.07634,38.66979 -12.23051,59.17827 0,-0.005 0.91038,-0.81565 1.18679,-1.53901 z"
         id="path3"
         style="fill:#000000;fill-opacity:1;stroke:#000000;stroke-width:6.69738;stroke-linecap:round;stroke-linejoin:round;stroke-dasharray:none;stroke-opacity:1" /><path
         fill="#ea2d2e"
         d="m 236.08013,40.034476 c 0,0 32.88519,21.824507 -31.19883,55.373631 -51.39197,26.920703 -11.71825,42.266483 -0.0177,59.807163 -30.0019,-17.95107 -52.00819,-33.756 -37.24688,-48.46434 21.67663,-21.585676 81.7286,-32.055585 68.46345,-66.716454 z"
         id="path4"
         style="fill:#000000;fill-opacity:1;stroke:#000000;stroke-width:6.69738;stroke-linecap:round;stroke-linejoin:round;stroke-dasharray:none;stroke-opacity:1" /><path
         fill="#0074bd"
         d="m 174.51678,291.22676 c 56.99625,3.58438 144.54467,-1.99547 146.61648,-28.5253 0,0 -3.98386,10.05719 -47.10889,18.0366 -48.65322,9.00956 -108.67223,7.95944 -144.25811,2.18005 0,0.002 7.29062,5.93902 44.75052,8.30865 z"
         id="path5"
         style="fill:#000000;fill-opacity:1;stroke:#000000;stroke-width:6.69738;stroke-linecap:round;stroke-linejoin:round;stroke-dasharray:none;stroke-opacity:1" /></g></g></svg>
